<svg width="81" height="80" viewBox="0 0 81 80" fill="none" xmlns="http://www.w3.org/2000/svg">
<g id="arrow">
<rect width="80" height="80" transform="translate(0.5)" fill="white"/>
<g id="arrow_forward_ios">
<mask id="mask0_3_480" style="mask-type:alpha" maskUnits="userSpaceOnUse" x="20" y="20" width="41" height="40">
<rect id="Bounding box" width="40" height="40" transform="matrix(-1 0 0 1 60.5 20)" fill="#D9D9D9"/>
</mask>
<g mask="url(#mask0_3_480)">
<path id="arrow_forward_ios_2" d="M48.5834 55.1665C49 54.7498 49.2084 54.2565 49.2084 53.6865C49.2084 53.1176 49 52.6248 48.5834 52.2082L36.375 39.9998L48.625 27.7498C49.0139 27.3609 49.2084 26.8748 49.2084 26.2915C49.2084 25.7082 49 25.2082 48.5834 24.7915C48.1667 24.3748 47.6734 24.1665 47.1034 24.1665C46.5345 24.1665 46.0417 24.3748 45.625 24.7915L31.625 38.8332C31.4584 38.9998 31.34 39.1804 31.27 39.3748C31.2012 39.5693 31.1667 39.7776 31.1667 39.9998C31.1667 40.2221 31.2012 40.4304 31.27 40.6248C31.34 40.8193 31.4584 40.9998 31.625 41.1665L45.6667 55.2082C46.0556 55.5971 46.5345 55.7915 47.1034 55.7915C47.6734 55.7915 48.1667 55.5832 48.5834 55.1665Z" fill="#191D23"/>
</g>
</g>
</g>
</svg>
