<svg width="81" height="80" viewBox="0 0 81 80" fill="none" xmlns="http://www.w3.org/2000/svg">
<g id="arrow">
<rect width="80" height="80" transform="translate(0.5)" fill="#232E42"/>
<g id="arrow_forward_ios">
<mask id="mask0_3_476" style="mask-type:alpha" maskUnits="userSpaceOnUse" x="20" y="20" width="41" height="40">
<rect id="Bounding box" x="20.5" y="20" width="40" height="40" fill="#D9D9D9"/>
</mask>
<g mask="url(#mask0_3_476)">
<path id="arrow_forward_ios_2" d="M32.4166 55.1665C32 54.7498 31.7916 54.2565 31.7916 53.6865C31.7916 53.1176 32 52.6248 32.4166 52.2082L44.625 39.9998L32.375 27.7498C31.9861 27.3609 31.7916 26.8748 31.7916 26.2915C31.7916 25.7082 32 25.2082 32.4166 24.7915C32.8333 24.3748 33.3266 24.1665 33.8966 24.1665C34.4655 24.1665 34.9583 24.3748 35.375 24.7915L49.375 38.8332C49.5416 38.9998 49.66 39.1804 49.73 39.3748C49.7988 39.5693 49.8333 39.7776 49.8333 39.9998C49.8333 40.2221 49.7988 40.4304 49.73 40.6248C49.66 40.8193 49.5416 40.9998 49.375 41.1665L35.3333 55.2082C34.9444 55.5971 34.4655 55.7915 33.8966 55.7915C33.3266 55.7915 32.8333 55.5832 32.4166 55.1665Z" fill="#92A8C0"/>
</g>
</g>
</g>
</svg>
