<svg width="164" height="49" viewBox="0 0 164 49" fill="none" xmlns="http://www.w3.org/2000/svg">
<rect width="164" height="49" rx="24.5" fill="#191D23"/>
<path d="M24.352 18.64L27.424 27.376L30.464 18.64H32.784L28.48 30H26.352L22.032 18.64H24.352ZM33.9485 30V21.616H36.0925V30H33.9485ZM33.9485 20.448V18.32H36.0925V20.448H33.9485ZM42.0746 30.16C41.4026 30.16 40.7946 30.048 40.2506 29.824C39.7066 29.5893 39.2426 29.2747 38.8586 28.88C38.4746 28.4747 38.176 28.016 37.9626 27.504C37.76 26.9813 37.6586 26.432 37.6586 25.856C37.6586 25.056 37.8346 24.3253 38.1866 23.664C38.5493 23.0027 39.0613 22.4747 39.7226 22.08C40.3946 21.6747 41.184 21.472 42.0906 21.472C43.008 21.472 43.792 21.6747 44.4426 22.08C45.0933 22.4747 45.5893 23.0027 45.9306 23.664C46.2826 24.3147 46.4586 25.0187 46.4586 25.776C46.4586 25.904 46.4533 26.0373 46.4426 26.176C46.432 26.304 46.4213 26.4107 46.4106 26.496H39.9306C39.9733 26.9227 40.096 27.296 40.2986 27.616C40.512 27.936 40.7786 28.1813 41.0986 28.352C41.4293 28.512 41.7813 28.592 42.1546 28.592C42.5813 28.592 42.9813 28.4907 43.3546 28.288C43.7386 28.0747 44 27.7973 44.1386 27.456L45.9786 27.968C45.776 28.3947 45.4826 28.7733 45.0986 29.104C44.7253 29.4347 44.2826 29.696 43.7706 29.888C43.2586 30.0693 42.6933 30.16 42.0746 30.16ZM39.8826 25.136H44.2666C44.224 24.7093 44.1013 24.3413 43.8986 24.032C43.7066 23.712 43.4506 23.4667 43.1306 23.296C42.8106 23.1147 42.4533 23.024 42.0586 23.024C41.6746 23.024 41.3226 23.1147 41.0026 23.296C40.6933 23.4667 40.4373 23.712 40.2346 24.032C40.0426 24.3413 39.9253 24.7093 39.8826 25.136ZM58.0904 21.616H60.1224L56.6184 30H54.8264L53.4184 26.4L52.0424 30H50.2344L46.7464 21.616H48.7624L51.2584 27.952L52.2344 25.216L50.7784 21.632H52.5544L53.4184 24.192L54.2984 21.632H56.0744L54.6184 25.216L55.6104 27.952L58.0904 21.616ZM67.6189 18.64H69.8589L74.0349 30H71.7629L70.7069 27.168H66.7389L65.6989 30H63.4269L67.6189 18.64ZM70.3069 25.616L68.7389 20.928L67.1069 25.616H70.3069ZM75.17 18.32H77.314V27.312C77.314 27.696 77.378 27.9573 77.506 28.096C77.634 28.224 77.81 28.288 78.034 28.288C78.2047 28.288 78.3807 28.2667 78.562 28.224C78.7433 28.1813 78.9033 28.128 79.042 28.064L79.33 29.696C79.042 29.8347 78.706 29.9413 78.322 30.016C77.938 30.0907 77.5913 30.128 77.282 30.128C76.61 30.128 76.0873 29.952 75.714 29.6C75.3513 29.2373 75.17 28.7253 75.17 28.064V18.32ZM80.4081 18.32H82.5521V27.312C82.5521 27.696 82.6161 27.9573 82.7441 28.096C82.8721 28.224 83.0481 28.288 83.2721 28.288C83.4428 28.288 83.6188 28.2667 83.8001 28.224C83.9815 28.1813 84.1415 28.128 84.2801 28.064L84.5681 29.696C84.2801 29.8347 83.9441 29.9413 83.5601 30.016C83.1761 30.0907 82.8295 30.128 82.5201 30.128C81.8481 30.128 81.3255 29.952 80.9521 29.6C80.5895 29.2373 80.4081 28.7253 80.4081 28.064V18.32ZM89.4365 30V18.64H94.2525C94.7752 18.64 95.2552 18.7467 95.6925 18.96C96.1298 19.1733 96.5085 19.4613 96.8285 19.824C97.1592 20.1867 97.4152 20.592 97.5965 21.04C97.7778 21.488 97.8685 21.9467 97.8685 22.416C97.8685 23.056 97.7192 23.664 97.4205 24.24C97.1218 24.816 96.7112 25.2853 96.1885 25.648C95.6658 26.0107 95.0472 26.192 94.3325 26.192H91.6445V30H89.4365ZM91.6445 24.256H94.2045C94.4712 24.256 94.7112 24.1813 94.9245 24.032C95.1378 23.8827 95.3085 23.6693 95.4365 23.392C95.5645 23.104 95.6285 22.7787 95.6285 22.416C95.6285 22.0213 95.5538 21.6853 95.4045 21.408C95.2658 21.1307 95.0792 20.9227 94.8445 20.784C94.6205 20.6453 94.3752 20.576 94.1085 20.576H91.6445V24.256ZM107.149 30H105.005V25.296C105.005 24.6453 104.877 24.16 104.621 23.84C104.376 23.52 104.035 23.36 103.597 23.36C103.341 23.36 103.069 23.4347 102.781 23.584C102.493 23.7333 102.232 23.9413 101.997 24.208C101.773 24.464 101.608 24.7627 101.501 25.104V30H99.3572V18.32H101.501V23.168C101.811 22.6347 102.232 22.2187 102.765 21.92C103.299 21.6213 103.88 21.472 104.509 21.472C105.053 21.472 105.496 21.568 105.837 21.76C106.179 21.9413 106.445 22.192 106.637 22.512C106.829 22.8213 106.963 23.1733 107.037 23.568C107.112 23.952 107.149 24.352 107.149 24.768V30ZM113.046 30.16C112.363 30.16 111.75 30.048 111.206 29.824C110.662 29.5893 110.198 29.2693 109.814 28.864C109.44 28.4587 109.152 27.9947 108.95 27.472C108.747 26.9493 108.646 26.4 108.646 25.824C108.646 25.2373 108.747 24.6827 108.95 24.16C109.152 23.6373 109.44 23.1733 109.814 22.768C110.198 22.3627 110.662 22.048 111.206 21.824C111.75 21.5893 112.363 21.472 113.046 21.472C113.728 21.472 114.336 21.5893 114.87 21.824C115.414 22.048 115.878 22.3627 116.262 22.768C116.646 23.1733 116.934 23.6373 117.126 24.16C117.328 24.6827 117.43 25.2373 117.43 25.824C117.43 26.4 117.328 26.9493 117.126 27.472C116.934 27.9947 116.646 28.4587 116.262 28.864C115.888 29.2693 115.43 29.5893 114.886 29.824C114.342 30.048 113.728 30.16 113.046 30.16ZM110.854 25.824C110.854 26.3147 110.95 26.752 111.142 27.136C111.334 27.5093 111.595 27.8027 111.926 28.016C112.256 28.2293 112.63 28.336 113.046 28.336C113.451 28.336 113.819 28.2293 114.15 28.016C114.48 27.792 114.742 27.4933 114.934 27.12C115.136 26.736 115.238 26.2987 115.238 25.808C115.238 25.328 115.136 24.896 114.934 24.512C114.742 24.128 114.48 23.8293 114.15 23.616C113.819 23.4027 113.451 23.296 113.046 23.296C112.63 23.296 112.256 23.408 111.926 23.632C111.595 23.8453 111.334 24.144 111.142 24.528C110.95 24.9013 110.854 25.3333 110.854 25.824ZM123.936 29.568C123.754 29.6427 123.536 29.728 123.28 29.824C123.024 29.92 122.746 29.9947 122.448 30.048C122.16 30.112 121.866 30.144 121.568 30.144C121.173 30.144 120.81 30.0747 120.48 29.936C120.149 29.7973 119.882 29.5787 119.68 29.28C119.488 28.9707 119.392 28.5707 119.392 28.08V23.264H118.288V21.616H119.392V18.896H121.536V21.616H123.296V23.264H121.536V27.36C121.546 27.648 121.626 27.856 121.776 27.984C121.925 28.112 122.112 28.176 122.336 28.176C122.56 28.176 122.778 28.1387 122.992 28.064C123.205 27.9893 123.376 27.9253 123.504 27.872L123.936 29.568ZM128.991 30.16C128.308 30.16 127.695 30.048 127.151 29.824C126.607 29.5893 126.143 29.2693 125.759 28.864C125.385 28.4587 125.097 27.9947 124.895 27.472C124.692 26.9493 124.591 26.4 124.591 25.824C124.591 25.2373 124.692 24.6827 124.895 24.16C125.097 23.6373 125.385 23.1733 125.759 22.768C126.143 22.3627 126.607 22.048 127.151 21.824C127.695 21.5893 128.308 21.472 128.991 21.472C129.673 21.472 130.281 21.5893 130.815 21.824C131.359 22.048 131.823 22.3627 132.207 22.768C132.591 23.1733 132.879 23.6373 133.071 24.16C133.273 24.6827 133.375 25.2373 133.375 25.824C133.375 26.4 133.273 26.9493 133.071 27.472C132.879 27.9947 132.591 28.4587 132.207 28.864C131.833 29.2693 131.375 29.5893 130.831 29.824C130.287 30.048 129.673 30.16 128.991 30.16ZM126.799 25.824C126.799 26.3147 126.895 26.752 127.087 27.136C127.279 27.5093 127.54 27.8027 127.871 28.016C128.201 28.2293 128.575 28.336 128.991 28.336C129.396 28.336 129.764 28.2293 130.095 28.016C130.425 27.792 130.687 27.4933 130.879 27.12C131.081 26.736 131.183 26.2987 131.183 25.808C131.183 25.328 131.081 24.896 130.879 24.512C130.687 24.128 130.425 23.8293 130.095 23.616C129.764 23.4027 129.396 23.296 128.991 23.296C128.575 23.296 128.201 23.408 127.871 23.632C127.54 23.8453 127.279 24.144 127.087 24.528C126.895 24.9013 126.799 25.3333 126.799 25.824ZM138.07 30.16C137.355 30.16 136.672 30.0427 136.022 29.808C135.371 29.5733 134.811 29.2267 134.342 28.768L135.11 27.376C135.611 27.7813 136.102 28.08 136.582 28.272C137.072 28.464 137.542 28.56 137.99 28.56C138.406 28.56 138.736 28.4853 138.982 28.336C139.238 28.1867 139.366 27.9627 139.366 27.664C139.366 27.4613 139.296 27.3067 139.158 27.2C139.019 27.0827 138.816 26.9813 138.55 26.896C138.294 26.8107 137.979 26.7147 137.606 26.608C136.987 26.4053 136.47 26.208 136.054 26.016C135.638 25.824 135.323 25.584 135.11 25.296C134.907 24.9973 134.806 24.6187 134.806 24.16C134.806 23.6053 134.944 23.1307 135.222 22.736C135.51 22.3307 135.904 22.016 136.406 21.792C136.918 21.568 137.515 21.456 138.198 21.456C138.795 21.456 139.36 21.552 139.894 21.744C140.427 21.9253 140.912 22.224 141.35 22.64L140.486 24C140.059 23.6693 139.654 23.4293 139.27 23.28C138.886 23.12 138.496 23.04 138.102 23.04C137.878 23.04 137.664 23.0667 137.462 23.12C137.27 23.1733 137.11 23.264 136.982 23.392C136.864 23.5093 136.806 23.68 136.806 23.904C136.806 24.1067 136.859 24.2667 136.966 24.384C137.083 24.4907 137.254 24.5867 137.478 24.672C137.712 24.7573 137.995 24.8533 138.326 24.96C138.998 25.152 139.563 25.3493 140.022 25.552C140.491 25.7547 140.843 26.0053 141.078 26.304C141.312 26.592 141.43 26.992 141.43 27.504C141.43 28.336 141.126 28.9867 140.518 29.456C139.91 29.9253 139.094 30.16 138.07 30.16Z" fill="white"/>
</svg>
