<svg width="236" height="68" viewBox="0 0 236 68" fill="none" xmlns="http://www.w3.org/2000/svg">
<path fill-rule="evenodd" clip-rule="evenodd" d="M49.0608 1.02461C49.3398 0.899677 49.6589 0.899675 49.9378 1.0246L97.4385 22.2989C97.8234 22.4713 98.0711 22.8532 98.0711 23.2743V64C98.0711 64.5905 97.5916 65.0692 97 65.0692C96.4085 65.0692 95.9289 64.5905 95.9289 64V23.9664L50.5704 3.65157V64C50.5704 64.5905 50.0909 65.0692 49.4993 65.0692H2C1.40845 65.0692 0.928902 64.5905 0.928902 64V23.2743C0.928902 22.8532 1.17658 22.4713 1.56151 22.2989L49.0608 1.02461ZM48.4282 3.65159V62.9309H3.0711V23.9664L48.4282 3.65159ZM58.4648 26.0239C58.7698 25.8268 59.154 25.7975 59.4854 25.946L87.891 38.6699C88.2759 38.8423 88.5236 39.2242 88.5236 39.6453V64C88.5236 64.5905 88.044 65.0692 87.4525 65.0692C86.8609 65.0692 86.3814 64.5905 86.3814 64V40.3374L60.118 28.573V64C60.118 64.5905 59.6384 65.0692 59.0469 65.0692C58.4553 65.0692 57.9758 64.5905 57.9758 64V26.9214C57.9758 26.5588 58.1599 26.2209 58.4648 26.0239Z" fill="#232E42"/>
<path d="M122.712 27.8231C122.443 27.5091 122.129 27.2321 121.769 26.992C121.41 26.7334 121.006 26.5118 120.557 26.3271C120.109 26.1424 119.624 25.9947 119.103 25.8839C118.6 25.773 118.062 25.7176 117.487 25.7176C115.817 25.7176 114.587 26.0501 113.797 26.715C113.025 27.3614 112.639 28.2479 112.639 29.3745C112.639 30.1502 112.819 30.7597 113.178 31.203C113.555 31.6462 114.139 32.0064 114.929 32.2834C115.719 32.5605 116.724 32.8467 117.945 33.1422C119.31 33.4378 120.486 33.7887 121.473 34.195C122.461 34.6013 123.224 35.1554 123.762 35.8572C124.301 36.5406 124.57 37.4733 124.57 38.6553C124.57 39.5603 124.4 40.3452 124.059 41.0101C123.718 41.675 123.242 42.2291 122.631 42.6723C122.021 43.1156 121.294 43.4481 120.45 43.6697C119.606 43.8728 118.681 43.9744 117.676 43.9744C116.688 43.9744 115.737 43.8728 114.821 43.6697C113.923 43.4481 113.07 43.1341 112.262 42.7278C111.454 42.303 110.7 41.7674 110 41.1209L110.943 39.5418C111.284 39.9112 111.688 40.2621 112.155 40.5946C112.639 40.9085 113.169 41.1948 113.744 41.4534C114.336 41.712 114.965 41.9151 115.629 42.0629C116.311 42.1922 117.011 42.2568 117.73 42.2568C119.256 42.2568 120.441 41.9705 121.285 41.398C122.146 40.8254 122.577 39.9758 122.577 38.8492C122.577 38.0366 122.362 37.3902 121.931 36.91C121.5 36.4113 120.854 36.005 119.992 35.691C119.13 35.377 118.071 35.0723 116.814 34.7768C115.485 34.4628 114.363 34.1119 113.447 33.724C112.532 33.3362 111.84 32.8283 111.374 32.2003C110.925 31.5539 110.7 30.7043 110.7 29.6516C110.7 28.4326 110.988 27.4076 111.562 26.5765C112.155 25.7269 112.963 25.0897 113.986 24.6649C115.009 24.2216 116.185 24 117.514 24C118.358 24 119.139 24.0923 119.857 24.277C120.593 24.4433 121.267 24.6926 121.877 25.025C122.506 25.3575 123.089 25.773 123.628 26.2717L122.712 27.8231Z" fill="#191D23"/>
<path d="M126.656 39.6526C126.656 38.7476 126.907 37.9719 127.41 37.3255C127.912 36.6606 128.604 36.1527 129.483 35.8018C130.381 35.4324 131.414 35.2477 132.581 35.2477C133.263 35.2477 133.972 35.3031 134.708 35.414C135.444 35.5248 136.1 35.691 136.674 35.9126V34.6937C136.674 33.4747 136.324 32.5051 135.624 31.7848C134.924 31.0645 133.954 30.7043 132.715 30.7043C131.961 30.7043 131.216 30.8521 130.48 31.1476C129.762 31.4246 129.008 31.8402 128.218 32.3942L127.517 31.0645C128.433 30.418 129.331 29.9378 130.211 29.6239C131.09 29.2914 131.988 29.1252 132.904 29.1252C134.627 29.1252 135.992 29.6331 136.998 30.6489C138.003 31.6647 138.506 33.0684 138.506 34.8599V41.5365C138.506 41.7951 138.56 41.989 138.667 42.1183C138.775 42.2291 138.946 42.2937 139.179 42.3122V43.8082C138.982 43.8267 138.811 43.8451 138.667 43.8636C138.524 43.8821 138.416 43.8821 138.344 43.8636C137.895 43.8451 137.554 43.6974 137.321 43.4204C137.087 43.1433 136.962 42.8478 136.944 42.5338L136.917 41.4811C136.288 42.3122 135.471 42.9586 134.466 43.4204C133.46 43.8636 132.437 44.0852 131.396 44.0852C130.498 44.0852 129.681 43.8913 128.945 43.5035C128.227 43.0971 127.661 42.5615 127.248 41.8966C126.853 41.2133 126.656 40.4653 126.656 39.6526ZM136.055 40.7608C136.252 40.5022 136.405 40.2529 136.513 40.0128C136.62 39.7727 136.674 39.5603 136.674 39.3756V37.2701C136.064 37.03 135.426 36.8453 134.762 36.716C134.116 36.5868 133.46 36.5221 132.796 36.5221C131.485 36.5221 130.426 36.7899 129.618 37.3255C128.81 37.8611 128.406 38.5907 128.406 39.5141C128.406 40.0497 128.541 40.5576 128.81 41.0378C129.079 41.4996 129.474 41.8874 129.995 42.2014C130.516 42.4969 131.126 42.6446 131.827 42.6446C132.706 42.6446 133.523 42.4692 134.277 42.1183C135.049 41.7674 135.642 41.3149 136.055 40.7608Z" fill="#191D23"/>
<path d="M154.528 43.8082H152.697V35.7464C152.697 34.0472 152.455 32.8098 151.97 32.0341C151.485 31.2399 150.722 30.8428 149.681 30.8428C148.962 30.8428 148.253 31.0275 147.553 31.3969C146.853 31.7478 146.233 32.2373 145.695 32.8652C145.174 33.4747 144.797 34.1765 144.563 34.9707V43.8082H142.732V29.3745H144.402V32.6436C144.779 31.9418 145.273 31.3323 145.883 30.8151C146.494 30.2795 147.185 29.864 147.957 29.5685C148.729 29.273 149.528 29.1252 150.354 29.1252C151.126 29.1252 151.781 29.273 152.32 29.5685C152.859 29.864 153.289 30.2888 153.613 30.8428C153.936 31.3784 154.169 32.0341 154.313 32.8098C154.457 33.567 154.528 34.4166 154.528 35.3586V43.8082Z" fill="#191D23"/>
<path d="M164.79 44.0852C163.766 44.0852 162.824 43.8913 161.962 43.5035C161.118 43.0971 160.373 42.5431 159.726 41.8412C159.098 41.1394 158.604 40.336 158.245 39.431C157.904 38.526 157.733 37.5656 157.733 36.5498C157.733 35.1831 158.03 33.9364 158.622 32.8098C159.215 31.6832 160.041 30.7874 161.1 30.1225C162.159 29.4576 163.38 29.1252 164.763 29.1252C166.074 29.1252 167.232 29.4392 168.237 30.0671C169.243 30.6766 169.988 31.5077 170.472 32.5605L168.695 33.1422C168.3 32.4035 167.743 31.8309 167.025 31.4246C166.325 30.9998 165.544 30.7874 164.682 30.7874C163.748 30.7874 162.896 31.0368 162.123 31.5354C161.351 32.0341 160.732 32.7175 160.265 33.5855C159.816 34.4536 159.592 35.4417 159.592 36.5498C159.592 37.6395 159.825 38.6276 160.292 39.5141C160.759 40.4006 161.378 41.1117 162.15 41.6473C162.922 42.1644 163.775 42.423 164.709 42.423C165.319 42.423 165.903 42.3122 166.46 42.0906C167.034 41.8689 167.528 41.5734 167.941 41.2041C168.372 40.8162 168.659 40.4006 168.803 39.9574L170.607 40.5115C170.356 41.1948 169.934 41.8135 169.341 42.3676C168.767 42.9032 168.084 43.328 167.294 43.642C166.522 43.9375 165.687 44.0852 164.79 44.0852Z" fill="#191D23"/>
<path d="M180.487 43.1156C180.343 43.171 180.119 43.2726 179.813 43.4204C179.508 43.5681 179.14 43.6974 178.709 43.8082C178.278 43.919 177.811 43.9744 177.309 43.9744C176.788 43.9744 176.294 43.8728 175.827 43.6697C175.378 43.4665 175.019 43.1618 174.75 42.7555C174.481 42.3307 174.346 41.8135 174.346 41.2041V30.8705H172.407V29.3745H174.346V24.4987H176.177V29.3745H179.409V30.8705H176.177V40.6777C176.213 41.1948 176.393 41.5827 176.716 41.8412C177.057 42.0998 177.443 42.2291 177.874 42.2291C178.377 42.2291 178.835 42.146 179.248 41.9798C179.661 41.7951 179.912 41.6658 180.002 41.5919L180.487 43.1156Z" fill="#191D23"/>
<path d="M182.91 37.8519V29.3745H184.741V37.5194C184.741 39.1632 185.01 40.3914 185.549 41.2041C186.105 42.0167 186.922 42.423 188 42.423C188.718 42.423 189.409 42.266 190.073 41.9521C190.756 41.6196 191.357 41.1579 191.878 40.5669C192.399 39.9574 192.794 39.2555 193.063 38.4614V29.3745H194.894V41.5365C194.894 41.7951 194.948 41.989 195.056 42.1183C195.164 42.2291 195.325 42.2937 195.541 42.3122V43.8082C195.325 43.8267 195.155 43.8359 195.029 43.8359C194.903 43.8544 194.787 43.8636 194.679 43.8636C194.32 43.8267 194.006 43.6789 193.736 43.4204C193.485 43.1618 193.35 42.8478 193.332 42.4784L193.278 40.5392C192.668 41.6473 191.833 42.5154 190.774 43.1433C189.732 43.7713 188.601 44.0852 187.38 44.0852C185.908 44.0852 184.795 43.5589 184.041 42.5061C183.287 41.4534 182.91 39.902 182.91 37.8519Z" fill="#191D23"/>
<path d="M198.173 39.6526C198.173 38.7476 198.425 37.9719 198.927 37.3255C199.43 36.6606 200.121 36.1527 201.001 35.8018C201.899 35.4324 202.931 35.2477 204.098 35.2477C204.781 35.2477 205.49 35.3031 206.226 35.414C206.962 35.5248 207.618 35.691 208.192 35.9126V34.6937C208.192 33.4747 207.842 32.5051 207.142 31.7848C206.442 31.0645 205.472 30.7043 204.233 30.7043C203.479 30.7043 202.734 30.8521 201.998 31.1476C201.28 31.4246 200.525 31.8402 199.735 32.3942L199.035 31.0645C199.951 30.418 200.849 29.9378 201.728 29.6239C202.608 29.2914 203.506 29.1252 204.422 29.1252C206.145 29.1252 207.51 29.6331 208.515 30.6489C209.521 31.6647 210.024 33.0684 210.024 34.8599V41.5365C210.024 41.7951 210.077 41.989 210.185 42.1183C210.293 42.2291 210.463 42.2937 210.697 42.3122V43.8082C210.499 43.8267 210.329 43.8451 210.185 43.8636C210.042 43.8821 209.934 43.8821 209.862 43.8636C209.413 43.8451 209.072 43.6974 208.839 43.4204C208.605 43.1433 208.479 42.8478 208.462 42.5338L208.435 41.4811C207.806 42.3122 206.989 42.9586 205.984 43.4204C204.978 43.8636 203.955 44.0852 202.913 44.0852C202.016 44.0852 201.199 43.8913 200.463 43.5035C199.744 43.0971 199.179 42.5615 198.766 41.8966C198.371 41.2133 198.173 40.4653 198.173 39.6526ZM207.573 40.7608C207.77 40.5022 207.923 40.2529 208.031 40.0128C208.138 39.7727 208.192 39.5603 208.192 39.3756V37.2701C207.582 37.03 206.944 36.8453 206.28 36.716C205.634 36.5868 204.978 36.5221 204.314 36.5221C203.003 36.5221 201.944 36.7899 201.136 37.3255C200.328 37.8611 199.924 38.5907 199.924 39.5141C199.924 40.0497 200.059 40.5576 200.328 41.0378C200.597 41.4996 200.992 41.8874 201.513 42.2014C202.034 42.4969 202.644 42.6446 203.344 42.6446C204.224 42.6446 205.041 42.4692 205.795 42.1183C206.567 41.7674 207.16 41.3149 207.573 40.7608Z" fill="#191D23"/>
<path d="M221.252 31.0368C220.031 31.0737 218.954 31.4246 218.02 32.0895C217.105 32.7544 216.458 33.6686 216.081 34.8322V43.8082H214.25V29.3745H215.974V32.8375C216.458 31.8217 217.096 30.9998 217.886 30.3719C218.694 29.7439 219.547 29.393 220.444 29.3191C220.624 29.3007 220.776 29.2914 220.902 29.2914C221.046 29.2914 221.162 29.3007 221.252 29.3191V31.0368Z" fill="#191D23"/>
<path d="M224.769 48.2408C225.021 48.2593 225.263 48.2685 225.496 48.2685C225.73 48.287 225.9 48.2777 226.008 48.2408C226.224 48.2039 226.43 48.0746 226.628 47.853C226.825 47.6313 227.058 47.2065 227.328 46.5786C227.597 45.9506 227.974 45.0272 228.459 43.8082L222.345 29.3745H224.284L229.429 41.8689L234.169 29.3745H236L228.728 47.9915C228.603 48.3424 228.414 48.6656 228.163 48.9611C227.911 49.2751 227.597 49.5152 227.22 49.6814C226.861 49.8661 226.412 49.9677 225.873 49.9861C225.712 50.0046 225.541 50.0046 225.362 49.9861C225.2 49.9861 225.003 49.9677 224.769 49.9307V48.2408Z" fill="#191D23"/>
<path d="M111.068 65V56.48H114.668C115.036 56.48 115.372 56.556 115.676 56.708C115.98 56.86 116.244 57.068 116.468 57.332C116.7 57.588 116.876 57.876 116.996 58.196C117.124 58.508 117.188 58.828 117.188 59.156C117.188 59.564 117.108 59.948 116.948 60.308C116.796 60.668 116.576 60.972 116.288 61.22C116.008 61.468 115.676 61.632 115.292 61.712L117.38 65H116.432L114.428 61.856H111.908V65H111.068ZM111.908 61.112H114.692C115.028 61.112 115.32 61.02 115.568 60.836C115.816 60.652 116.008 60.412 116.144 60.116C116.28 59.812 116.348 59.492 116.348 59.156C116.348 58.812 116.268 58.496 116.108 58.208C115.956 57.912 115.748 57.676 115.484 57.5C115.228 57.316 114.94 57.224 114.62 57.224H111.908V61.112ZM121.372 65.12C120.924 65.12 120.508 65.036 120.124 64.868C119.74 64.692 119.408 64.456 119.128 64.16C118.848 63.856 118.628 63.508 118.468 63.116C118.316 62.724 118.24 62.304 118.24 61.856C118.24 61.272 118.372 60.736 118.636 60.248C118.908 59.76 119.28 59.372 119.752 59.084C120.224 58.788 120.76 58.64 121.36 58.64C121.976 58.64 122.512 58.788 122.968 59.084C123.432 59.38 123.796 59.772 124.06 60.26C124.324 60.74 124.456 61.268 124.456 61.844C124.456 61.908 124.456 61.972 124.456 62.036C124.456 62.092 124.452 62.136 124.444 62.168H119.092C119.132 62.616 119.256 63.016 119.464 63.368C119.68 63.712 119.956 63.988 120.292 64.196C120.636 64.396 121.008 64.496 121.408 64.496C121.816 64.496 122.2 64.392 122.56 64.184C122.928 63.976 123.184 63.704 123.328 63.368L124.036 63.56C123.908 63.856 123.712 64.124 123.448 64.364C123.184 64.604 122.872 64.792 122.512 64.928C122.16 65.056 121.78 65.12 121.372 65.12ZM119.068 61.58H123.688C123.656 61.124 123.532 60.724 123.316 60.38C123.108 60.036 122.832 59.768 122.488 59.576C122.152 59.376 121.78 59.276 121.372 59.276C120.964 59.276 120.592 59.376 120.256 59.576C119.92 59.768 119.644 60.04 119.428 60.392C119.22 60.736 119.1 61.132 119.068 61.58ZM127.887 65.12C127.375 65.12 126.899 65.036 126.459 64.868C126.019 64.7 125.639 64.444 125.319 64.1L125.655 63.524C126.007 63.852 126.359 64.092 126.711 64.244C127.071 64.388 127.451 64.46 127.851 64.46C128.339 64.46 128.735 64.364 129.039 64.172C129.343 63.972 129.495 63.688 129.495 63.32C129.495 63.072 129.419 62.884 129.267 62.756C129.123 62.62 128.911 62.512 128.631 62.432C128.359 62.344 128.031 62.252 127.647 62.156C127.215 62.036 126.851 61.912 126.555 61.784C126.267 61.648 126.047 61.48 125.895 61.28C125.751 61.072 125.679 60.804 125.679 60.476C125.679 60.068 125.779 59.732 125.979 59.468C126.187 59.196 126.467 58.992 126.819 58.856C127.179 58.712 127.579 58.64 128.019 58.64C128.499 58.64 128.923 58.716 129.291 58.868C129.659 59.02 129.959 59.232 130.191 59.504L129.795 60.056C129.571 59.8 129.303 59.612 128.991 59.492C128.687 59.364 128.347 59.3 127.971 59.3C127.715 59.3 127.471 59.336 127.239 59.408C127.007 59.472 126.815 59.584 126.663 59.744C126.519 59.896 126.447 60.108 126.447 60.38C126.447 60.604 126.503 60.78 126.615 60.908C126.727 61.028 126.895 61.132 127.119 61.22C127.343 61.3 127.619 61.388 127.947 61.484C128.419 61.612 128.831 61.744 129.183 61.88C129.535 62.008 129.807 62.176 129.999 62.384C130.191 62.592 130.287 62.884 130.287 63.26C130.287 63.844 130.067 64.3 129.627 64.628C129.187 64.956 128.607 65.12 127.887 65.12ZM131.756 65V58.748H132.572V65H131.756ZM131.756 57.44V56.24H132.572V57.44H131.756ZM134.069 61.892C134.069 61.3 134.189 60.76 134.429 60.272C134.677 59.776 135.017 59.38 135.449 59.084C135.881 58.788 136.373 58.64 136.925 58.64C137.445 58.64 137.909 58.78 138.317 59.06C138.733 59.332 139.057 59.664 139.289 60.056V56.24H140.105V64.016C140.105 64.128 140.129 64.212 140.177 64.268C140.225 64.316 140.297 64.344 140.393 64.352V65C140.233 65.024 140.109 65.032 140.021 65.024C139.853 65.016 139.705 64.948 139.577 64.82C139.449 64.692 139.385 64.552 139.385 64.4V63.788C139.137 64.196 138.801 64.52 138.377 64.76C137.953 65 137.513 65.12 137.057 65.12C136.625 65.12 136.225 65.032 135.857 64.856C135.497 64.68 135.181 64.44 134.909 64.136C134.645 63.832 134.437 63.488 134.285 63.104C134.141 62.712 134.069 62.308 134.069 61.892ZM139.289 62.852V60.92C139.185 60.632 139.017 60.372 138.785 60.14C138.553 59.9 138.289 59.712 137.993 59.576C137.705 59.432 137.417 59.36 137.129 59.36C136.793 59.36 136.489 59.432 136.217 59.576C135.945 59.712 135.709 59.9 135.509 60.14C135.317 60.38 135.169 60.652 135.065 60.956C134.961 61.26 134.909 61.572 134.909 61.892C134.909 62.228 134.965 62.548 135.077 62.852C135.197 63.156 135.365 63.428 135.581 63.668C135.797 63.9 136.045 64.08 136.325 64.208C136.605 64.336 136.909 64.4 137.237 64.4C137.445 64.4 137.661 64.36 137.885 64.28C138.109 64.2 138.321 64.092 138.521 63.956C138.729 63.812 138.901 63.644 139.037 63.452C139.173 63.26 139.257 63.06 139.289 62.852ZM144.774 65.12C144.326 65.12 143.91 65.036 143.526 64.868C143.142 64.692 142.81 64.456 142.53 64.16C142.25 63.856 142.03 63.508 141.87 63.116C141.718 62.724 141.642 62.304 141.642 61.856C141.642 61.272 141.774 60.736 142.038 60.248C142.31 59.76 142.682 59.372 143.154 59.084C143.626 58.788 144.162 58.64 144.762 58.64C145.378 58.64 145.914 58.788 146.37 59.084C146.834 59.38 147.198 59.772 147.462 60.26C147.726 60.74 147.858 61.268 147.858 61.844C147.858 61.908 147.858 61.972 147.858 62.036C147.858 62.092 147.854 62.136 147.846 62.168H142.494C142.534 62.616 142.658 63.016 142.866 63.368C143.082 63.712 143.358 63.988 143.694 64.196C144.038 64.396 144.41 64.496 144.81 64.496C145.218 64.496 145.602 64.392 145.962 64.184C146.33 63.976 146.586 63.704 146.73 63.368L147.438 63.56C147.31 63.856 147.114 64.124 146.85 64.364C146.586 64.604 146.274 64.792 145.914 64.928C145.562 65.056 145.182 65.12 144.774 65.12ZM142.47 61.58H147.09C147.058 61.124 146.934 60.724 146.718 60.38C146.51 60.036 146.234 59.768 145.89 59.576C145.554 59.376 145.182 59.276 144.774 59.276C144.366 59.276 143.994 59.376 143.658 59.576C143.322 59.768 143.046 60.04 142.83 60.392C142.622 60.736 142.502 61.132 142.47 61.58ZM154.493 65H153.677V61.508C153.677 60.772 153.569 60.236 153.353 59.9C153.137 59.556 152.797 59.384 152.333 59.384C152.013 59.384 151.697 59.464 151.385 59.624C151.073 59.776 150.797 59.988 150.557 60.26C150.325 60.524 150.157 60.828 150.053 61.172V65H149.237V58.748H149.981V60.164C150.149 59.86 150.369 59.596 150.641 59.372C150.913 59.14 151.221 58.96 151.565 58.832C151.909 58.704 152.265 58.64 152.633 58.64C152.977 58.64 153.269 58.704 153.509 58.832C153.749 58.96 153.941 59.144 154.085 59.384C154.229 59.616 154.333 59.9 154.397 60.236C154.461 60.564 154.493 60.932 154.493 61.34V65ZM159.295 64.7C159.231 64.724 159.131 64.768 158.995 64.832C158.859 64.896 158.695 64.952 158.503 65C158.311 65.048 158.103 65.072 157.879 65.072C157.647 65.072 157.427 65.028 157.219 64.94C157.019 64.852 156.859 64.72 156.739 64.544C156.619 64.36 156.559 64.136 156.559 63.872V59.396H155.695V58.748H156.559V56.636H157.375V58.748H158.815V59.396H157.375V63.644C157.391 63.868 157.471 64.036 157.615 64.148C157.767 64.26 157.939 64.316 158.131 64.316C158.355 64.316 158.559 64.28 158.743 64.208C158.927 64.128 159.039 64.072 159.079 64.04L159.295 64.7ZM159.93 63.2C159.93 62.808 160.042 62.472 160.266 62.192C160.49 61.904 160.798 61.684 161.19 61.532C161.59 61.372 162.05 61.292 162.57 61.292C162.874 61.292 163.19 61.316 163.518 61.364C163.846 61.412 164.138 61.484 164.394 61.58V61.052C164.394 60.524 164.238 60.104 163.926 59.792C163.614 59.48 163.182 59.324 162.63 59.324C162.294 59.324 161.962 59.388 161.634 59.516C161.314 59.636 160.978 59.816 160.626 60.056L160.314 59.48C160.722 59.2 161.122 58.992 161.514 58.856C161.906 58.712 162.306 58.64 162.714 58.64C163.482 58.64 164.09 58.86 164.538 59.3C164.986 59.74 165.21 60.348 165.21 61.124V64.016C165.21 64.128 165.234 64.212 165.282 64.268C165.33 64.316 165.406 64.344 165.51 64.352V65C165.422 65.008 165.346 65.016 165.282 65.024C165.218 65.032 165.17 65.032 165.138 65.024C164.938 65.016 164.786 64.952 164.682 64.832C164.578 64.712 164.522 64.584 164.514 64.448L164.502 63.992C164.222 64.352 163.858 64.632 163.41 64.832C162.962 65.024 162.506 65.12 162.042 65.12C161.642 65.12 161.278 65.036 160.95 64.868C160.63 64.692 160.378 64.46 160.194 64.172C160.018 63.876 159.93 63.552 159.93 63.2ZM164.118 63.68C164.206 63.568 164.274 63.46 164.322 63.356C164.37 63.252 164.394 63.16 164.394 63.08V62.168C164.122 62.064 163.838 61.984 163.542 61.928C163.254 61.872 162.962 61.844 162.666 61.844C162.082 61.844 161.61 61.96 161.25 62.192C160.89 62.424 160.71 62.74 160.71 63.14C160.71 63.372 160.77 63.592 160.89 63.8C161.01 64 161.186 64.168 161.418 64.304C161.65 64.432 161.922 64.496 162.234 64.496C162.626 64.496 162.99 64.42 163.326 64.268C163.67 64.116 163.934 63.92 164.118 63.68ZM167.129 56.24H167.945V63.584C167.945 63.896 168.001 64.1 168.113 64.196C168.225 64.292 168.361 64.34 168.521 64.34C168.665 64.34 168.809 64.324 168.953 64.292C169.097 64.26 169.221 64.228 169.325 64.196L169.469 64.856C169.317 64.92 169.129 64.972 168.905 65.012C168.689 65.052 168.501 65.072 168.341 65.072C167.973 65.072 167.677 64.964 167.453 64.748C167.237 64.532 167.129 64.236 167.129 63.86V56.24ZM172.902 60.68C172.902 60.16 172.99 59.652 173.166 59.156C173.35 58.652 173.614 58.196 173.958 57.788C174.302 57.372 174.726 57.044 175.23 56.804C175.734 56.556 176.306 56.432 176.946 56.432C177.706 56.432 178.354 56.608 178.89 56.96C179.434 57.304 179.834 57.748 180.09 58.292L179.43 58.7C179.246 58.324 179.014 58.028 178.734 57.812C178.454 57.588 178.154 57.428 177.834 57.332C177.522 57.236 177.21 57.188 176.898 57.188C176.386 57.188 175.934 57.292 175.542 57.5C175.15 57.7 174.818 57.972 174.546 58.316C174.282 58.652 174.082 59.032 173.946 59.456C173.81 59.872 173.742 60.296 173.742 60.728C173.742 61.2 173.822 61.652 173.982 62.084C174.142 62.516 174.366 62.9 174.654 63.236C174.942 63.564 175.278 63.828 175.662 64.028C176.054 64.22 176.478 64.316 176.934 64.316C177.254 64.316 177.582 64.26 177.918 64.148C178.254 64.036 178.566 63.864 178.854 63.632C179.15 63.4 179.386 63.1 179.562 62.732L180.258 63.092C180.082 63.516 179.81 63.876 179.442 64.172C179.074 64.468 178.662 64.692 178.206 64.844C177.758 64.996 177.318 65.072 176.886 65.072C176.302 65.072 175.766 64.948 175.278 64.7C174.79 64.444 174.366 64.108 174.006 63.692C173.654 63.268 173.382 62.796 173.19 62.276C172.998 61.748 172.902 61.216 172.902 60.68ZM184.309 65.12C183.861 65.12 183.445 65.036 183.061 64.868C182.685 64.692 182.357 64.456 182.077 64.16C181.805 63.856 181.593 63.512 181.441 63.128C181.289 62.736 181.213 62.324 181.213 61.892C181.213 61.444 181.289 61.028 181.441 60.644C181.593 60.252 181.809 59.908 182.089 59.612C182.369 59.308 182.697 59.072 183.073 58.904C183.457 58.728 183.873 58.64 184.321 58.64C184.769 58.64 185.181 58.728 185.557 58.904C185.933 59.072 186.261 59.308 186.541 59.612C186.821 59.908 187.037 60.252 187.189 60.644C187.341 61.028 187.417 61.444 187.417 61.892C187.417 62.324 187.341 62.736 187.189 63.128C187.037 63.512 186.821 63.856 186.541 64.16C186.269 64.456 185.941 64.692 185.557 64.868C185.181 65.036 184.765 65.12 184.309 65.12ZM182.041 61.904C182.041 62.368 182.141 62.792 182.341 63.176C182.549 63.552 182.825 63.852 183.169 64.076C183.513 64.292 183.893 64.4 184.309 64.4C184.725 64.4 185.105 64.288 185.449 64.064C185.793 63.84 186.069 63.536 186.277 63.152C186.485 62.76 186.589 62.336 186.589 61.88C186.589 61.416 186.485 60.992 186.277 60.608C186.069 60.224 185.793 59.92 185.449 59.696C185.105 59.472 184.725 59.36 184.309 59.36C183.893 59.36 183.513 59.476 183.169 59.708C182.833 59.94 182.561 60.248 182.353 60.632C182.145 61.008 182.041 61.432 182.041 61.904ZM198.201 65H197.385V61.508C197.385 60.78 197.269 60.244 197.037 59.9C196.805 59.556 196.461 59.384 196.005 59.384C195.533 59.384 195.109 59.552 194.733 59.888C194.365 60.224 194.105 60.656 193.953 61.184V65H193.137V61.508C193.137 60.772 193.025 60.236 192.801 59.9C192.577 59.556 192.233 59.384 191.769 59.384C191.305 59.384 190.885 59.548 190.509 59.876C190.133 60.204 189.869 60.636 189.717 61.172V65H188.901V58.748H189.645V60.164C189.909 59.676 190.245 59.3 190.653 59.036C191.069 58.772 191.529 58.64 192.033 58.64C192.553 58.64 192.973 58.788 193.293 59.084C193.613 59.38 193.809 59.768 193.881 60.248C194.169 59.72 194.513 59.32 194.913 59.048C195.321 58.776 195.781 58.64 196.293 58.64C196.645 58.64 196.941 58.704 197.181 58.832C197.429 58.96 197.625 59.144 197.769 59.384C197.921 59.616 198.029 59.9 198.093 60.236C198.165 60.564 198.201 60.932 198.201 61.34V65ZM203.241 65.12C202.721 65.12 202.253 64.984 201.837 64.712C201.429 64.44 201.105 64.104 200.865 63.704V67.556H200.049V58.748H200.781V59.96C201.029 59.568 201.361 59.252 201.777 59.012C202.193 58.764 202.637 58.64 203.109 58.64C203.541 58.64 203.937 58.732 204.297 58.916C204.657 59.092 204.969 59.332 205.233 59.636C205.497 59.94 205.701 60.288 205.845 60.68C205.997 61.064 206.073 61.464 206.073 61.88C206.073 62.464 205.953 63.004 205.713 63.5C205.481 63.988 205.153 64.38 204.729 64.676C204.305 64.972 203.809 65.12 203.241 65.12ZM203.013 64.4C203.357 64.4 203.665 64.332 203.937 64.196C204.209 64.052 204.441 63.86 204.633 63.62C204.833 63.38 204.985 63.112 205.089 62.816C205.193 62.512 205.245 62.2 205.245 61.88C205.245 61.544 205.185 61.224 205.065 60.92C204.953 60.616 204.789 60.348 204.573 60.116C204.357 59.884 204.109 59.7 203.829 59.564C203.549 59.428 203.245 59.36 202.917 59.36C202.709 59.36 202.493 59.4 202.269 59.48C202.045 59.56 201.829 59.676 201.621 59.828C201.421 59.972 201.253 60.136 201.117 60.32C200.981 60.504 200.897 60.7 200.865 60.908V62.828C200.993 63.124 201.165 63.392 201.381 63.632C201.597 63.864 201.845 64.052 202.125 64.196C202.413 64.332 202.709 64.4 203.013 64.4ZM207.611 56.24H208.427V63.584C208.427 63.896 208.483 64.1 208.595 64.196C208.707 64.292 208.843 64.34 209.003 64.34C209.147 64.34 209.291 64.324 209.435 64.292C209.579 64.26 209.703 64.228 209.807 64.196L209.951 64.856C209.799 64.92 209.611 64.972 209.387 65.012C209.171 65.052 208.983 65.072 208.823 65.072C208.455 65.072 208.159 64.964 207.935 64.748C207.719 64.532 207.611 64.236 207.611 63.86V56.24ZM213.665 65.12C213.217 65.12 212.801 65.036 212.417 64.868C212.033 64.692 211.701 64.456 211.421 64.16C211.141 63.856 210.921 63.508 210.761 63.116C210.609 62.724 210.533 62.304 210.533 61.856C210.533 61.272 210.665 60.736 210.929 60.248C211.201 59.76 211.573 59.372 212.045 59.084C212.517 58.788 213.053 58.64 213.653 58.64C214.269 58.64 214.805 58.788 215.261 59.084C215.725 59.38 216.089 59.772 216.353 60.26C216.617 60.74 216.749 61.268 216.749 61.844C216.749 61.908 216.749 61.972 216.749 62.036C216.749 62.092 216.745 62.136 216.737 62.168H211.385C211.425 62.616 211.549 63.016 211.757 63.368C211.973 63.712 212.249 63.988 212.585 64.196C212.929 64.396 213.301 64.496 213.701 64.496C214.109 64.496 214.493 64.392 214.853 64.184C215.221 63.976 215.477 63.704 215.621 63.368L216.329 63.56C216.201 63.856 216.005 64.124 215.741 64.364C215.477 64.604 215.165 64.792 214.805 64.928C214.453 65.056 214.073 65.12 213.665 65.12ZM211.361 61.58H215.981C215.949 61.124 215.825 60.724 215.609 60.38C215.401 60.036 215.125 59.768 214.781 59.576C214.445 59.376 214.073 59.276 213.665 59.276C213.257 59.276 212.885 59.376 212.549 59.576C212.213 59.768 211.937 60.04 211.721 60.392C211.513 60.736 211.393 61.132 211.361 61.58ZM218.085 58.748L219.921 61.196L220.017 61.376L220.113 61.196L221.937 58.748H222.861L220.485 61.892L222.861 65H221.937L220.113 62.564L220.017 62.396L219.921 62.564L218.097 65H217.173L219.537 61.892L217.173 58.748H218.085Z" fill="black"/>
</svg>
